<svg xmlns="http://www.w3.org/2000/svg">
  <defs>
    <!-- Docker Icon -->
    <symbol id="docker" viewBox="0 0 32 32">
      <circle cx="16" cy="16" r="14" fill="#1794D4"/>
      <path d="M18 7H16V9H18V7Z" fill="white"/>
      <path d="M10 10H12V12H10V10Z" fill="white"/>
      <path d="M6.00155 16.9414C6.17244 19.8427 7.90027 24 14 24C20.8 24 23.8333 19 24.5 16.5C25.3333 16.5 27.2 16 28 14C27.5 13.5 25.5 13.5 24.5 14C24.5 13.2 24 11.5 23 11C22.3333 11.6667 21.3 13.4 22.5 15C22 16 20.6667 16 20 16H6.9429C6.41342 16 5.97041 16.4128 6.00155 16.9414Z" fill="white"/>
      <path d="M9 13H7V15H9V13Z" fill="white"/>
      <path d="M10 13H12V15H10V13Z" fill="white"/>
      <path d="M15 13H13V15H15V13Z" fill="white"/>
      <path d="M16 13H18V15H16V13Z" fill="white"/>
      <path d="M21 13H19V15H21V13Z" fill="white"/>
      <path d="M15 10H13V12H15V10Z" fill="white"/>
      <path d="M16 10H18V12H16V10Z" fill="white"/>
    </symbol>

    <!-- Kubernetes Icon -->
    <symbol id="kubernetes" viewBox="0 0 16 16">
      <path fill="#326DE6" d="M4.5 14.569c.214.278.539.431.874.431h5.251c.335 0 .66-.165.875-.434l3.258-4.178c.214-.278.288-.633.214-.978l-1.165-5.207a1.128 1.128 0 00-.606-.777l-4.714-2.31A1.062 1.062 0 008.002 1c-.168 0-.335.038-.485.115l-4.715 2.32a1.129 1.129 0 00-.605.777L1.032 9.42c-.084.345 0 .7.214.978L4.5 14.568z"/>
      <path fill="#ffffff" fill-rule="evenodd" d="M12.741 9.128c.098.002.196.01.293.024l.058.013.031.008a.308.308 0 01.26.371.306.306 0 01-.396.223h-.004l-.003-.001-.003-.002a1.58 1.58 0 00-.03-.006l-.05-.01a2.55 2.55 0 01-.274-.106 2.867 2.867 0 00-.533-.157.242.242 0 00-.171.064 4.656 4.656 0 00-.131-.023 3.971 3.971 0 01-1.764 2.212c.015.042.032.083.051.123a.239.239 0 00-.023.18c.074.17.165.332.271.484.06.078.114.16.164.244l.028.057.012.025a.306.306 0 01-.381.44.308.308 0 01-.172-.18l-.01-.02a1.57 1.57 0 01-.028-.058 2.546 2.546 0 01-.089-.28 2.837 2.837 0 00-.21-.512.242.242 0 00-.156-.095l-.03-.053-.035-.064a3.97 3.97 0 01-2.823-.007l-.07.125a.25.25 0 00-.132.064 2.13 2.13 0 00-.237.548 2.518 2.518 0 01-.088.28 1.196 1.196 0 01-.025.05l-.013.027v.001a.306.306 0 01-.421.173.308.308 0 01-.173-.314.306.306 0 01.041-.12l.014-.03.026-.052c.05-.085.104-.166.164-.244.108-.156.2-.322.277-.496a.302.302 0 00-.028-.173l.056-.133A3.972 3.972 0 014.22 9.532l-.134.023a.34.34 0 00-.176-.062 2.871 2.871 0 00-.533.156c-.09.04-.181.075-.274.105a1.017 1.017 0 01-.05.011l-.03.007H3.02l-.002.002h-.005a.308.308 0 01-.397-.349.306.306 0 01.261-.245l.005-.001h.002l.006-.002c.024-.006.054-.014.076-.018.097-.013.195-.021.293-.023.186-.013.37-.043.549-.09a.422.422 0 00.131-.133l.128-.037a3.938 3.938 0 01.625-2.752l-.098-.087a.338.338 0 00-.062-.176 2.854 2.854 0 00-.455-.319 2.557 2.557 0 01-.254-.148l-.048-.038-.015-.013-.004-.003a.323.323 0 01-.076-.45.295.295 0 01.244-.107.365.365 0 01.213.08l.022.017c.016.013.034.026.046.037.072.067.139.139.202.213.125.137.263.262.412.372.056.03.121.036.182.018l.11.078a3.938 3.938 0 012.552-1.224l.008-.129a.332.332 0 00.099-.158 2.844 2.844 0 00-.034-.553 2.56 2.56 0 01-.042-.29v-.082-.005A.306.306 0 018 2.82a.308.308 0 01.306.337v.087a2.529 2.529 0 01-.041.29 2.85 2.85 0 00-.035.553.242.242 0 00.1.153v.007l.007.129c.967.088 1.87.522 2.54 1.223l.116-.082a.34.34 0 00.186-.02c.149-.11.287-.236.412-.373.063-.075.13-.146.202-.213l.051-.04.017-.014a.307.307 0 11.381.477l-.024.02c-.015.012-.03.025-.043.034a2.537 2.537 0 01-.254.148 2.87 2.87 0 00-.455.32.241.241 0 00-.058.172l-.05.044-.058.053c.542.806.77 1.783.637 2.745l.123.036c.031.055.077.101.133.132.179.048.363.078.548.09zM7.291 5.24c.107-.024.216-.043.326-.056l-.09 1.6-.008.004a.268.268 0 01-.293.256.27.27 0 01-.135-.05l-.002.001-1.316-.93c.419-.41.945-.696 1.518-.825zm1.618 1.75l1.308-.924a3.182 3.182 0 00-1.833-.882l.09 1.598h.002a.268.268 0 00.294.256.27.27 0 00.135-.05l.004.002zm2.248 1.656L9.609 8.2l-.002-.006a.27.27 0 01-.185-.343.27.27 0 01.08-.12L9.5 7.73l1.195-1.067c.366.594.527 1.29.46 1.983zM9.096 9.5l.618 1.49a3.148 3.148 0 001.275-1.598l-1.593-.269-.002.003a.26.26 0 00-.166.023.27.27 0 00-.13.348l-.002.003zm-.385 1.905c-.573.13-1.17.1-1.727-.088l.777-1.4h.001a.27.27 0 01.475-.001h.006l.779 1.402a3.286 3.286 0 01-.311.087zm-2.418-.422l.611-1.474-.004-.006a.268.268 0 00-.297-.37L6.6 9.13l-1.579.267a3.16 3.16 0 001.272 1.586zm-.997-4.32l1.201 1.071-.001.007a.269.269 0 01-.106.462l-.001.005-1.54.443a3.134 3.134 0 01.447-1.988zm2.95 1.154h-.492l-.307.38.11.476.443.213.442-.212.11-.476-.306-.381z" clip-rule="evenodd"/>
    </symbol>

    <!-- Ansible Icon -->
    <symbol id="ansible" viewBox="0 0 24 24">
      <path d="M10.617 11.473l4.686 3.695-3.102-7.662zM12 0C5.371 0 0 5.371 0 12s5.371 12 12 12 12-5.371 12-12S18.629 0 12 0zm5.797 17.305c-.011.471-.403.842-.875.83-.236 0-.416-.09-.664-.293l-6.19-5-2.079 5.203H6.191L11.438 5.44c.124-.314.427-.52.764-.506.326-.014.63.189.742.506l4.774 11.494c.045.111.08.234.08.348-.001.009-.001.009-.001.023z" fill="#000"/>
    </symbol>

   <!-- Proxmox Icon -->
    <symbol id="proxmox" viewBox="0 0 1024 1024">
      <circle cx="512" cy="512" r="512" style="fill:#e57000"/>
      <path d="M512 497.8 342.7 311.6c6.6-6.6 14.2-11.7 22.9-15.5 8.7-3.8 18.1-5.7 28.1-5.7 10.7.1 20.4 2.2 29.3 6.3 8.9 4.1 16.6 9.8 23.1 17l65.8 71.9 65.4-71.9c6.8-7.2 14.7-12.9 23.6-17 9-4.1 18.7-6.2 29.2-6.3 10 .1 19.4 2 28.1 5.7 8.7 3.8 16.4 8.9 22.9 15.5L512 497.8m0 28.4L342.7 712.4c6.6 6.6 14.2 11.7 22.9 15.5 8.7 3.8 18.1 5.7 28.1 5.7 10.5-.1 20.2-2.2 29.2-6.3s16.9-9.8 23.6-17l65.4-71.9 65.8 71.9c6.5 7.2 14.2 12.9 23.1 17 8.9 4.1 18.6 6.2 29.3 6.3 10-.1 19.4-2 28.1-5.7 8.7-3.8 16.4-8.9 22.9-15.5L512 526.2M497.8 512 370.3 372.2c-7.4-7.9-16-14.1-25.9-18.7-9.8-4.5-20.5-6.8-31.9-6.9-11 .1-21.3 2.2-30.8 6.3-9.6 4.1-17.9 9.8-25.1 16.9L385.9 512 256.5 654.2c7.2 7.4 15.6 13.2 25.1 17.4 9.6 4.2 19.8 6.3 30.8 6.3 11.5-.1 22.2-2.4 32.1-6.9 9.9-4.5 18.5-10.8 25.7-18.7L497.8 512m28.4 0 127.5 140.3c7.2 7.9 15.8 14.1 25.7 18.7 9.9 4.5 20.6 6.8 32.1 6.9 11-.1 21.3-2.2 30.8-6.3 9.6-4.2 17.9-9.9 25.1-17.4L638.1 512l129.4-142.2c-7.2-7.2-15.6-12.8-25.1-16.9-9.6-4.1-19.8-6.2-30.8-6.3-11.4.1-22.1 2.4-31.9 6.9-9.8 4.5-18.5 10.8-25.9 18.7L526.2 512" style="fill:#fff"/>
    </symbol>

    <!-- TrueNAS Icon -->
    <symbol id="truenas" viewBox="0 0 1024 1024">
      <circle cx="512" cy="512" r="512" style="fill:#0095d5"/>
      <path d="M780 468.41v114.21L535.48 723.86v-114.2zM488.69 609.66v114.21L244 582.62V468.41l110.57 63.79a1.81 1.81 0 0 0 .4.24zM611 512l-98.91 57.15-99-57.15 99-57.15zm145.7-84.09-99 57.15-122.22-70.64V300.13zm-268-127.81v114.32L366.3 485l-99-57.06z" style="fill:#fff"/>
    </symbol>

    <!-- UniFi Icon -->
    <symbol id="unifi" viewBox="0 0 1024 1024">
      <circle cx="512" cy="512" r="512" fill="#0559c9"/>
      <path d="M588.6 385q0-31.49 20.72-58.54t107.68-27V518l-9.91 31.93a212.89 212.89 0 0 1-18.92 43.69 144.75 144.75 0 0 1-26.58 33.49 136.56 136.56 0 0 1-34.46 23.29A175.8 175.8 0 0 1 585 663.93a217.46 217.46 0 0 0 3.61-38.58zM384 324.2h25.69V349H384v-24.8zm25.69 37.69h25.71v24.85h-25.67zM384 393.38h25.7v24.85H384zm-25.67 37.27H384v25.27h-25.64zM307 298.92h25.67v25.28H307zm128.4 326.43q0 32.37 11.94 56.33t26.37 39.91q14.4 16 26.35 23.74l11.94 7.75q-48.19 0-86.27-13.52t-64.44-37.7a163.16 163.16 0 0 1-40.32-57q-14-32.84-14-71V368.11h25.67V505.6h25.7v-24.83H384v55.43h25.69v-93.13h25.71zm94.6 51.89q35.6 1.32 65.34-5.33a163.23 163.23 0 0 0 53.38-22 148.87 148.87 0 0 0 40.78-39.48q17.12-24.15 27.48-57.87v21.34q0 36.37-12.39 67.64a159.64 159.64 0 0 1-36.28 55q-23.87 23.74-58.12 38.37t-77.92 17.29l-15.33-8q-1.79-1.32-29.73-23.29t-38.3-66.3a151.75 151.75 0 0 0 35.38 15.3q20.05 6 45.71 7.33zM358.36 349.47h25.24v24.85h-25.24z" fill="#fff"/>
    </symbol>

    <!-- Cloudflare Icon -->
    <symbol id="cloudflare" viewBox="0 0 1024 1024">
      <circle cx="512" cy="512" r="512" style="fill:#f38020"/>
      <path d="M608.2 592.4c3.1-10.8 1.9-20.7-3.3-28.1-4.8-6.7-12.9-10.6-22.6-11.1l-184.7-2.4c-1.1 0-2.2-.6-2.8-1.5-.6-.9-.7-2.1-.4-3.3.6-1.8 2.4-3.2 4.3-3.3l186.4-2.4c22.1-1 46.1-18.9 54.5-40.8l10.6-27.8c.5-1.2.6-2.4.3-3.6-12-54.3-60.5-94.8-118.4-94.8-53.4 0-98.7 34.5-114.9 82.4-10.5-7.8-23.9-12-38.3-10.6-25.7 2.5-46.2 23.1-48.8 48.8-.6 6.6-.1 13.1 1.4 19.1-41.9 1.2-75.3 35.4-75.3 77.6 0 3.7.3 7.5.8 11.2.3 1.8 1.8 3.1 3.6 3.1h340.9c1.9 0 3.8-1.4 4.3-3.3l2.4-9.2zM667 473.7c-1.6 0-3.4 0-5.1.2-1.2 0-2.2.9-2.7 2.1l-7.2 25c-3.1 10.8-2 20.7 3.3 28.1 4.8 6.7 12.9 10.6 22.7 11.1l39.3 2.4c1.2 0 2.3.6 2.8 1.5.6.9.7 2.3.5 3.3-.6 1.8-2.4 3.2-4.4 3.3l-41 2.4c-22.2 1-46 18.9-54.5 40.8l-3 7.6c-.6 1.5.5 3 2.1 3h140.8c1.6 0 3.1-1 3.6-2.7 2.4-8.7 3.7-17.9 3.7-27.3 0-55.5-45.3-100.8-101-100.8" style="fill:#fff"/>
    </symbol>

    <!-- Hetzner Icon -->
    <symbol id="hetzner" viewBox="0 0 1024 1024">
      <circle cx="512" cy="512" r="512" style="fill:#d50c2d"/>
      <path d="M822.2 523.2c6.1-1.1 11.9-3.6 16.9-7.4 4.5-4.8 6.8-11.2 6.3-17.8 0-5.3-1.5-10.6-4.2-15.1-4.1-7-11.5-11.5-19.7-11.9h-4.1l-9.5-.3h-43c-2.6 0-3.7 1.1-3.7 3.7v75.3c0 2.6 1.1 3.7 3.7 3.7h11.2c2.6 0 3.7-1.1 3.7-3.7v-24.9h13.7c3 .2 5.9 1.4 8.1 3.4l21.7 21.8c2 2 4.6 3.2 7.4 3.4h16.6c2.6 0 3.2-1.5 1.4-3.4l-26.5-26.8zm-2.8-16.1h-39.6v-19h39.6c4 .5 7 3.9 7 8v2.9c0 4.2-3 7.6-7 8.1zm-75.6 28.7h-61.5v-15.5h49.1c2.6 0 3.7-1.1 3.7-3.7v-9c0-2.6-1.1-3.7-3.7-3.7h-49.1v-15.5h61.6c2.6 0 3.7-1.1 3.7-3.7v-10.3c0-2.6-1.1-3.7-3.7-3.7h-76.8c-2.6 0-3.7 1.1-3.7 3.7v75.4c0 2.6 1.1 3.7 3.7 3.7h76.8c2.6 0 3.7-1.1 3.7-3.7v-10.2c0-2.7-1.3-3.8-3.8-3.8zm-94-38c.1-5.3-1.4-10.4-4.2-14.9-4.1-7.2-11.7-11.8-20-12.3h-56.4c-2.6 0-3.7 1.1-3.7 3.7v75.3c0 2.6 1.1 3.7 3.7 3.7h12.1c2.6 0 3.7-1 3.7-3.7v-61.4h32.7c7 0 13.7 4.6 13.7 11.6v49.9c0 2.6 1.1 3.7 3.7 3.7h11c2.6 0 3.7-1.1 3.7-3.7v-51.9zm-101.5 37.5h-53.1l53.2-46.7c2.2-1.7 3.5-4.1 3.7-6.9v-7.4c0-2.6-1.1-3.7-3.7-3.7h-77c-2.6 0-3.7 1.1-3.7 3.7v10.3c0 2.6 1.1 3.7 3.7 3.7h49.3l-49.5 46.4c-2.1 1.7-3.5 4.1-3.7 6.9v8.1c0 2.6 1.1 3.7 3.7 3.7h76.9c2.6 0 3.7-1.1 3.7-3.7V539c.2-2.6-.9-3.7-3.5-3.7zm-97.9-64.7h-76.8c-2.6 0-3.7 1-3.7 3.7v10.3c0 2.6 1 3.7 3.7 3.7h29v61.4c0 2.6 1.1 3.7 3.7 3.7h12.3c2.6 0 3.7-1.1 3.7-3.7v-61.4h28.2c2.6 0 3.7-1.1 3.7-3.7v-10.2c-.1-2.6-1.2-3.8-3.8-3.8zm-97.8 65.2h-61.4v-15.5h49.1c2.6 0 3.7-1.1 3.7-3.7v-9c0-2.6-1-3.7-3.7-3.7h-49.1v-15.5h61.4c2.6 0 3.7-1.1 3.7-3.7v-10.3c0-2.6-1.1-3.7-3.7-3.7H276c-2.6 0-3.7 1.1-3.7 3.7v75.4c0 2.6 1.1 3.7 3.7 3.7h76.6c2.6 0 3.7-1.1 3.7-3.7v-10.2c0-2.7-1.1-3.8-3.7-3.8zm-97.8-65.2h-11.6c-2.6 0-3.7 1.1-3.7 3.7v29.3h-46.1v-29.3c0-2.6-1.1-3.7-3.7-3.7H178c-2.6 0-3.7 1.1-3.7 3.7v75.4c0 2.6 1.1 3.7 3.7 3.7h11.7c2.6 0 3.7-1 3.7-3.7v-29.8h46.2v29.8c0 2.6 1.1 3.7 3.7 3.7h11.6c2.6 0 3.7-1.1 3.7-3.7v-75.4c-.1-2.5-1.2-3.7-3.8-3.7z" style="fill:#fff"/>
    </symbol>

    <!-- WordPress Icon -->
    <symbol id="wordpress" viewBox="0 0 48 48">
      <g stroke="none" stroke-width="1" fill="none" fill-rule="evenodd">
        <g fill="#00759D">
          <path d="M0,23.99925 C0,33.499047 5.520173,41.708803 13.525923,45.598425 L2.077565,14.232445 C0.747023,17.216038 0,20.519141 0,23.99925 Z M40.201556,22.788712 C40.201556,19.821619 39.135023,17.768055 38.222994,16.170505 C37.006456,14.191943 35.864921,12.517891 35.864921,10.540829 C35.864921,8.33426 37.537473,6.280696 39.895547,6.280696 C40.00205,6.280696 40.102553,6.294197 40.206056,6.300197 C35.936923,2.388075 30.247245,0 23.99955,0 C15.614288,0 8.238557,4.302134 3.946923,10.816838 C4.510941,10.834839 5.041958,10.845339 5.491972,10.845339 C8.00155,10.845339 11.888172,10.540829 11.888172,10.540829 C13.181212,10.464327 13.334217,12.366386 12.041176,12.517891 C12.041176,12.517891 10.740636,12.670896 9.29459,12.747398 L18.033864,38.743211 L23.287028,22.991218 L19.548911,12.747398 C18.25587,12.670896 17.030332,12.517891 17.030332,12.517891 C15.737292,12.441389 15.888797,10.464327 17.183337,10.540829 C17.183337,10.540829 21.146461,10.845339 23.504535,10.845339 C26.014113,10.845339 29.900734,10.540829 29.900734,10.540829 C31.195275,10.464327 31.34678,12.366386 30.053739,12.517891 C30.053739,12.517891 28.751698,12.670896 27.307153,12.747398 L35.980424,38.545205 L38.375999,30.546955 C39.411032,27.225851 40.201556,24.842276 40.201556,22.788712 Z M45.059908,12.48534 C45.163411,13.250364 45.221913,14.06939 45.221913,14.952917 C45.221913,17.387493 44.765899,20.125079 43.396356,23.549686 L36.065627,44.743848 C43.20135,40.584218 48,32.852977 48,23.9997 C48,19.82657 46.933467,15.903947 45.059908,12.48534 Z M24.421063,26.098716 L17.219338,47.022869 C19.370405,47.655889 21.644476,48.0009 23.99955,48.0009 C26.794137,48.0009 29.474721,47.517885 31.969299,46.640358 C31.906297,46.536854 31.846295,46.428851 31.798294,46.310347 L24.421063,26.098716 Z"/>
        </g>
      </g>
    </symbol>

    <!-- Mailcow Icon -->
    <symbol id="mailcow" viewBox="0 0 1024 1024">
      <circle cx="512" cy="512" r="512" style="fill:#b58765"/>
      <path d="M889.1 606.6s-13.8 81.8-57.6 81.1c-14.1.6-24-3.5-30.7-8.3-10.1 10.7-23.3 19.9-36.5 27.6l-.1.1c-10.8 6.2-21.5 11.3-30.3 15.2-3.1 1.3-5.9 2.5-8.4 3.5v-43.9c6.4.2 12.3-.1 17.8-1 22.6-3.5 37.6-14.7 43.7-20.1-4.3-13.2-10.9-52 55-58.1-2.7.6-9.3 3.5-15.1 18.3 19.5 1.6 51.5 4.4 62.2-14.4zm-242.4-16.1c-.5.5-1 1-1.4 1.3l-.7.6c-13.8 13.3-29.3 24.5-46.2 33.4-3.4 1.8-6.9 3.5-10.4 5-1.7.8-3.5 1.6-5.3 2.3-3.6 1.5-7.2 2.9-10.9 4.1-.5.2-1 .3-1.4.5L719.3 763c.9-2.8 1.4-5.7 1.4-8.6V479.2L700 495.8c-8.4 35.4-26.6 67.9-52.5 93.9l-.8.8zM563.8 640c-18.6 5.6-37.9 8.5-57.4 8.5-21.1 0-42-3.3-62-9.9L290.6 766.8l-2.2 1.7c5 8.5 14.1 13.8 24 13.8h380.4c9.9 0 19-5.3 24-13.8l-2.1-1.6L563.8 640zM316.1 507.8c-.5-1.5-.9-3.1-1.4-4.7l-30.2-24v275.2c0 2.9.5 5.8 1.4 8.6l152-126.7c-58.2-21.3-103.7-69.1-121.8-128.4zm388.2-36.7c-.6 5.3-1.4 10.6-2.5 15.9l14.1-11.3-11.6-4.6zm-414.6 4.2 22.5 17.9c-1.8-7.9-3.1-15.8-3.9-23.6l-18.6 5.7zm385.6-119.6c15.8 28.5 24.2 60.9 24.2 93.6 0 51.1-19.7 99.1-55.5 135.5-.6.6-2.1 2.2-2.8 2.8l-.6.6c-13.4 12.9-28.5 23.8-44.9 32.4-3.3 1.7-6.7 3.4-10.1 4.9-1.7.8-3.4 1.5-5.2 2.2-3.4 1.4-7 2.8-10.5 4-1.7.6-3.6 1.2-5.4 1.8-18.8 5.9-38.3 8.9-58.2 8.9-21.4 0-42.5-3.5-62.7-10.4-58.3-20-103.9-67.1-122-126-3.8-12.4-6.4-25.4-7.6-38.4-.6-6.1-.9-12.3-.9-18.3 0-6.6.3-13.2 1-19.8 2.5-24.8 9.7-48.5 21.4-70.5 2.2-4.1 4.5-8.1 6.9-12 5.9-9.4 12.6-18.3 19.9-26.5l.4-.4.7-.8c2.7-3 5.6-5.9 8.4-8.7 9-8.7 18.9-16.6 29.4-23.4 7-4.6 14.4-8.7 22-12.3 17.7-8.4 36.5-14.1 55.9-16.8 17-2.4 34.3-2.5 51.3-.4 18.9 2.4 37.3 7.5 54.7 15.3 7.4 3.3 14.6 7.1 21.4 11.3 11 6.7 21.4 14.6 30.9 23.4 11.5 10.7 21.7 22.7 30.3 35.8 2.8 3.9 5.3 8 7.6 12.2zm-32 89.7c0-80.5-59-148.5-137.1-158.2-6.3-.8-12.7-1.2-19.1-1.2-29.7 0-58.7 8.6-83.6 24.8-24.3 15.8-43.9 38-56.6 64.3-10.6 22-16 45.7-16 70.3 0 40.7 15 79.5 42.4 109.1 29.9 32.4 70.3 50.3 113.9 50.3 55.7 0 107.6-30.7 135.5-80 5.9-10.5 10.7-21.7 14.1-33.4 4.2-14.9 6.5-30.4 6.5-46zm48.9 11.9h2.2v-.1h-2.2v.1zm-77.8 63.6 1.7 3.1c-27.1 46.2-76.5 74.9-129.1 74.9-41.4 0-79.9-16.8-108.5-47.3v-4.2l.8-.3-.8-.9c1.9-41.9 56.4-75.9 121.8-75.9 50.4 0 96.2 20.4 114.1 50.6zm-170.3 14.8c0-10.7-8.7-19.3-19.3-19.3-10.6 0-19.3 8.7-19.3 19.3 0 10.7 8.7 19.3 19.3 19.3 10.7 0 19.3-8.7 19.3-19.3zm151.6 0c0-10.7-8.7-19.3-19.3-19.3-10.7 0-19.3 8.7-19.3 19.3 0 10.7 8.7 19.3 19.3 19.3 10.6 0 19.3-8.7 19.3-19.3zM487 291.9v-1.1 1.1c6.1 0 12.3.4 18.4 1.1 75.2 9.4 132 74.9 132 152.4 0 15.1-2.2 30-6.4 44.5v.1c-.5 1.7-1.1 3.6-1.8 5.8l-.5 1.4c-.7 1.9-1.4 3.8-2.1 5.6l-.5 1.2c-.7 1.7-1.4 3.4-2.1 5l-.4 1c-.8 1.7-1.6 3.5-2.6 5.4-.4.9-.9 1.8-1.4 2.7-19-32.1-66.5-53.6-119.1-53.6-33.9 0-65.8 8.6-89.9 24.3-22.9 14.9-36.1 34.5-37.7 55.5-1.2-4.1-2.1-8.3-2.7-12.3 0-.3-.1-.7-.2-1-.1-.3-.1-.6-.2-1-8.6-37.9-14.6-66.3-21.7-107.8-.8-6.6-1.2-12.3-1.4-17.9 0-.8-.1-1.6-.1-2.4-.1-1.4-.1-2.8-.1-4.3 0-2.2.1-4.5.3-7.3 1.3-3.5 2.8-7 4.4-10.4l1.1-2.3.1-.3 1.2-2.4.6-1.2c.2-.4.3-.7.5-1 .1-.2.2-.3.3-.5l.2-.4c12.2-22.7 30-42.1 51.4-56 24-15.7 51.8-23.9 80.4-23.9zm-34.8 104.9c0-11.9-9.6-21.5-21.5-21.5s-21.5 9.6-21.5 21.5 9.6 21.5 21.5 21.5c5.7 0 11.1-2.2 15.2-6.3 4-4 6.3-9.4 6.3-15.2zm105.4 0c0 11.9 9.6 21.5 21.5 21.5s21.5-9.6 21.5-21.5-9.7-21.5-21.5-21.5-21.5 9.7-21.5 21.5zm27.8 1.4c4.1 0 7.5-3.3 7.5-7.5 0-4.1-3.4-7.5-7.5-7.5s-7.5 3.4-7.5 7.5c0 4.2 3.3 7.5 7.5 7.5zm-147.1 0c4.1 0 7.5-3.3 7.5-7.5 0-4.1-3.3-7.5-7.5-7.5-4.1 0-7.5 3.4-7.5 7.5 0 4.2 3.3 7.5 7.5 7.5zm146.4-189.6c-3 6.5-16.4 33-40.4 44.6 14.9 2.9 29.4 7.4 43.1 13.5 6.4-11.8 17.4-38.7-2.7-58.1zm-163.9 60.1c13.9-6.6 28.6-11.6 43.7-14.8-25.1-11.1-39-38.7-42.1-45.4-20.9 20.3-8.6 48.1-1.6 60.2zm191.3 11c10.7 6.7 20.8 14.4 30 22.9l.1.1c14.1-9.1 35.8-18.6 59.7-12.8l1 .2-.1 1c0 .3-4 27.3-29 49 2.3 3.5 4.5 7.1 6.6 10.8 28.2-20.2 40.6-48.3 37-83.5-6.8-2.4-67.8-24-105.3 12.3zm-284.6-20.6c-19.9 1.4-36.2 7.2-39.5 8.5-3.9 37.5 10.4 66.8 42.4 87.1 1.9-3.6 4-7.1 6.1-10.5-29.3-22.2-33.8-52.7-33.9-53l-.1-1 1-.2c25.8-6.2 48.9 5 64 15.7 8.8-8.5 18.4-16.2 28.6-23-20.3-22-48.4-25-68.6-23.6z" style="fill:#fff"/>
    </symbol>
  </defs>
</svg>
